<?xml version="1.0" encoding="UTF-8"?>
<svg version="1.1" xmlns="http://www.w3.org/2000/svg" width="100" height="100">
<path d="M0 0 C33 0 66 0 100 0 C100 33 100 66 100 100 C67 100 34 100 0 100 C0 67 0 34 0 0 Z " fill="#FDFDFD" transform="translate(0,0)"/>
<path d="M0 0 C1.0209375 0.433125 1.0209375 0.433125 2.0625 0.875 C1.48258587 4.24437448 0.45900321 5.84052427 -2 8.1875 C-2.93779297 9.0846875 -2.93779297 9.0846875 -3.89453125 10 C-12.57455584 17.96637056 -12.57455584 17.96637056 -16.9375 20.875 C-16.39070587 20.87055878 -15.84391174 20.86611755 -15.2805481 20.86154175 C-9.60323696 20.81738644 -3.92597439 20.78716621 1.75146484 20.76513672 C3.8719277 20.75506249 5.99237661 20.74140267 8.11279297 20.72412109 C11.15595943 20.69993511 14.19894266 20.68853131 17.2421875 20.6796875 C18.19431122 20.66936493 19.14643494 20.65904236 20.12741089 20.64840698 C21.00817291 20.64825592 21.88893494 20.64810486 22.79638672 20.64794922 C23.57360077 20.643508 24.35081482 20.63906677 25.15158081 20.63449097 C27.0625 20.875 27.0625 20.875 29.0625 22.875 C28.6875 25 28.6875 25 28.0625 26.875 C26.89154785 26.90005615 25.7205957 26.9251123 24.51416016 26.95092773 C20.17924622 27.04493703 15.84449496 27.14517341 11.50976562 27.24731445 C9.63187458 27.29068789 7.75394348 27.33236118 5.87597656 27.37231445 C3.1802156 27.42995876 0.48465673 27.49366981 -2.2109375 27.55859375 C-3.05369232 27.57530624 -3.89644714 27.59201874 -4.76473999 27.60923767 C-8.9861661 27.60736144 -8.9861661 27.60736144 -12.9375 28.875 C-12.27363281 29.59945312 -11.60976563 30.32390625 -10.92578125 31.0703125 C-9.1109775 33.05732391 -7.30199958 35.04836967 -5.5 37.046875 C-4.05977628 38.6363902 -2.6093791 40.21726405 -1.125 41.765625 C0.25 43.25 0.25 43.25 2.0625 45.875 C1.875 48.75 1.875 48.75 1.0625 50.875 C-3.03363165 50.37871101 -4.73839052 49.52071937 -7.3125 46.3125 C-7.90804687 45.590625 -8.50359375 44.86875 -9.1171875 44.125 C-9.71789062 43.3825 -10.31859375 42.64 -10.9375 41.875 C-12.09691516 40.51461955 -13.26345888 39.16027814 -14.4375 37.8125 C-15.00726563 37.15378906 -15.57703125 36.49507812 -16.1640625 35.81640625 C-17.96071258 33.84958887 -19.8611557 32.06196256 -21.8125 30.25 C-24.04577346 28.0217792 -24.96541584 26.8066062 -26.1875 23.8125 C-25.73399573 18.48382478 -22.24786574 15.99385074 -18.3984375 12.70703125 C-16.49822596 11.14446061 -14.58387359 9.59893874 -12.65625 8.0703125 C-10.35324334 6.2107008 -8.21361928 4.27846774 -6.0625 2.25 C-2.9375 -0.125 -2.9375 -0.125 0 0 Z " fill="#070707" transform="translate(48.9375,26.125)"/>
</svg>
